<?xml version="1.0" standalone="no"?>
<!DOCTYPE svg PUBLIC "-//W3C//DTD SVG 20010904//EN"
 "http://www.w3.org/TR/2001/REC-SVG-20010904/DTD/svg10.dtd">
<svg version="1.0" xmlns="http://www.w3.org/2000/svg"
 width="700.000000pt" height="700.000000pt" viewBox="0 0 700.000000 700.000000"
 preserveAspectRatio="xMidYMid meet">

<g transform="translate(0.000000,700.000000) scale(0.100000,-0.100000)"
fill="#000000" stroke="none">
<path d="M1830 6380 c-9 -6 -10 -10 -3 -10 6 0 15 5 18 10 8 12 4 12 -15 0z"/>
<path d="M1837 6298 c-245 -421 -767 -1332 -764 -1334 2 -2 279 9 616 24 488
23 615 31 625 43 10 11 1058 1225 1114 1292 14 16 -24 17 -775 17 l-791 0 -25
-42z"/>
<path d="M2946 5681 c-313 -362 -570 -662 -570 -667 -1 -11 1227 -265 1235
-256 3 4 327 349 720 768 393 418 725 772 738 787 l24 27 -789 0 -789 0 -569
-659z"/>
<path d="M4404 5525 c-407 -432 -740 -788 -741 -793 -2 -6 163 -102 789 -455
l158 -89 668 377 669 377 -393 681 c-217 375 -398 683 -403 685 -5 2 -341
-350 -747 -783z"/>
<path d="M1580 4932 c-350 -16 -539 -28 -547 -36 -19 -18 -784 -1348 -779
-1354 6 -5 1922 319 1936 328 6 4 90 988 90 1063 l0 27 -82 -1 c-46 -1 -324
-13 -618 -27z"/>
<path d="M2335 4916 c-7 -57 -85 -1049 -82 -1051 10 -8 1222 -330 1224 -326 1
3 25 264 54 579 41 445 50 575 40 581 -7 4 -159 38 -339 75 -180 37 -454 93
-609 125 l-282 58 -6 -41z"/>
<path d="M5305 4519 c-357 -202 -654 -370 -658 -371 -7 -3 149 -959 156 -964
2 -1 1957 333 1963 336 8 2 -789 1365 -798 1367 -7 0 -305 -165 -663 -368z"/>
<path d="M3586 4133 c-27 -296 -50 -555 -50 -577 l-1 -39 600 -162 c504 -136
600 -160 603 -146 1 9 -33 222 -76 473 l-77 458 -460 261 c-253 144 -467 264
-475 266 -13 3 -22 -76 -64 -534z"/>
<path d="M1201 3644 c-524 -90 -956 -166 -958 -168 -8 -7 779 -1366 790 -1366
20 0 1327 743 1327 754 0 12 -146 873 -156 919 -4 20 -11 27 -27 26 -12 -1
-451 -75 -976 -165z"/>
<path d="M2260 3791 c1 -25 156 -931 161 -935 9 -9 942 -536 944 -534 6 6 106
1150 102 1154 -3 3 -275 78 -606 168 -484 131 -601 159 -601 147z"/>
<path d="M3471 2879 c-29 -319 -51 -582 -49 -583 12 -9 1234 -253 1239 -248
10 12 90 1075 82 1082 -8 7 -1194 330 -1211 330 -4 0 -32 -261 -61 -581z"/>
<path d="M5765 3294 c-522 -90 -952 -163 -955 -164 -6 0 -94 -1090 -88 -1094
1 -1 264 10 583 25 319 15 599 28 621 28 l41 1 392 678 c215 373 391 682 391
685 0 11 18 14 -985 -159z"/>
<path d="M1725 2434 c-390 -221 -660 -379 -659 -387 1 -15 759 -1333 778
-1354 8 -9 188 176 754 779 607 645 741 793 730 803 -14 13 -934 536 -940 534
-1 0 -300 -169 -663 -375z"/>
<path d="M2724 1528 c-368 -392 -702 -748 -743 -790 l-74 -78 791 0 791 0 571
661 c315 363 569 663 566 666 -6 7 -1192 253 -1217 253 -8 0 -317 -321 -685
-712z"/>
<path d="M5325 2009 c-313 -15 -582 -28 -597 -28 -23 -1 -108 -94 -569 -628
-298 -346 -556 -643 -572 -661 l-31 -32 794 2 795 3 392 680 c216 374 393 683
393 688 0 4 -8 6 -17 6 -10 -1 -274 -14 -588 -30z"/>
</g>
</svg>
