<svg width="210" height="24" viewBox="0 0 210 24" fill="none" xmlns="http://www.w3.org/2000/svg">
<path d="M0 24H3.93998V8.12571L13.0987 24H16.4512L25.6099 8.12571V24H29.5499V0H25.679L14.7922 18.9257L3.87086 0H0V24Z" fill="white"/>
<path d="M38.7052 24H53.9467V20.0914H42.6451V13.9543H53.9467V10.0457H42.6451V3.90857H53.9467V0H38.7052V24Z" fill="white"/>
<path d="M69.0276 24H72.9676V3.90857H82.0917V0H59.8689V3.90857H69.0276V24Z" fill="white"/>
<path d="M105.64 24H109.96L98.7279 0H94.8916L83.6592 24H87.9794L89.9148 19.8171H103.67L105.64 24ZM91.7465 15.9086L96.7925 5.10857L101.838 15.9086H91.7465Z" fill="white"/>
<path d="M116.783 24H120.723V16.4571H125.803C130.642 16.4571 134.133 12.9943 134.133 8.22857C134.133 3.49714 130.642 0 125.803 0H116.783V24ZM120.723 12.5486V3.90857H125.803C128.361 3.90857 130.193 5.72571 130.193 8.22857C130.193 10.7314 128.361 12.5486 125.803 12.5486H120.723Z" fill="white"/>
<path d="M141.583 24H157.032V20.0914H145.523V0H141.583V24Z" fill="white"/>
<path d="M163.952 24H179.194V20.0914H167.892V13.9543H179.194V10.0457H167.892V3.90857H179.194V0H163.952V24Z" fill="white"/>
<path d="M185.358 24H190.438L197.696 15.12L204.919 24H210L200.219 12L210 0H204.954L197.696 8.88L190.438 0H185.358L195.139 12L185.358 24Z" fill="white"/>
</svg>
