<svg width="37" height="24" viewBox="0 0 37 24" fill="none" xmlns="http://www.w3.org/2000/svg" scale="3">
<path fill-rule="evenodd" clip-rule="evenodd" d="M17.9795 16.7269C18.1356 16.9896 18.1239 17.3193 17.9495 17.5703L14.1791 22.9976C13.8541 23.4654 13.1536 23.4383 12.8656 22.9469L0.108185 1.17421C-0.196462 0.654276 0.17849 0 0.781099 0H7.59871C7.87389 0 8.1287 0.145007 8.26924 0.381582L17.9795 16.7269ZM36.2263 22.8266C36.5301 23.3466 36.1551 24 35.5529 24H28.7769C28.5 24 28.2439 23.8532 28.104 23.6144L14.9554 1.17421C14.6508 0.654276 15.0257 0 15.6283 0H22.4422C22.7194 0 22.9758 0.147135 23.1156 0.38648L36.2263 22.8266ZM5.48723 23.7878C6.09171 23.7878 6.46641 23.1298 6.158 22.6099L1.48311 14.7294C1.07849 14.0473 0.0324158 14.3342 0.0324158 15.1273V23.0078C0.0324158 23.4386 0.381598 23.7878 0.812336 23.7878H5.48723Z" fill="white"/>
</svg>
