<svg width="96" height="96" viewBox="0 0 96 96" fill="none" xmlns="http://www.w3.org/2000/svg">
<g clip-path="url(#clip0)">
<path fill-rule="evenodd" clip-rule="evenodd" d="M20.32 73.2C20.6609 72.8308 21.0728 72.5342 21.531 72.328C21.9892 72.1219 22.4843 72.0103 22.9867 72H106.773C107.128 72.005 107.473 72.1123 107.768 72.309C108.063 72.5057 108.295 72.7835 108.436 73.1088C108.577 73.4342 108.621 73.7933 108.562 74.143C108.504 74.4927 108.346 74.8181 108.107 75.08L90.3467 94.8C90.0058 95.1692 89.594 95.4658 89.1357 95.672C88.6775 95.8782 88.1824 95.9897 87.68 96H3.84002C3.48552 95.995 3.14 95.8877 2.84503 95.691C2.55007 95.4943 2.31822 95.2165 2.17737 94.8912C2.03652 94.5658 1.99267 94.2067 2.05109 93.857C2.10951 93.5073 2.26772 93.1819 2.50669 92.92L20.32 73.2ZM108.187 56.8533C108.426 57.1152 108.584 57.4406 108.642 57.7903C108.701 58.14 108.657 58.4991 108.516 58.8245C108.375 59.1499 108.143 59.4276 107.848 59.6243C107.553 59.821 107.208 59.9283 106.853 59.9333L23.04 60C22.5377 59.9897 22.0425 59.8782 21.5843 59.672C21.1261 59.4658 20.7142 59.1692 20.3734 58.8L2.48002 39.1467C2.24106 38.8848 2.08285 38.5594 2.02442 38.2097C1.966 37.86 2.00985 37.5009 2.1507 37.1755C2.29155 36.8501 2.5234 36.5724 2.81837 36.3757C3.11333 36.179 3.45885 36.0717 3.81336 36.0667L87.6267 36C88.1291 36.0103 88.6242 36.1218 89.0824 36.328C89.5406 36.5342 89.9525 36.8308 90.2934 37.2L108.187 56.8533ZM20.32 1.2C20.6609 0.830818 21.0728 0.534244 21.531 0.328046C21.9892 0.121849 22.4843 0.0102714 22.9867 0L106.827 0.0666667C107.181 0.0716595 107.527 0.178967 107.822 0.375681C108.117 0.572394 108.349 0.850138 108.489 1.1755C108.63 1.50087 108.674 1.86 108.616 2.20969C108.557 2.55939 108.399 2.88476 108.16 3.14667L90.3467 22.8C90.0058 23.1692 89.594 23.4658 89.1357 23.672C88.6775 23.8782 88.1824 23.9897 87.68 24H3.84002C3.48552 23.995 3.14 23.8877 2.84503 23.691C2.55007 23.4943 2.31822 23.2165 2.17737 22.8912C2.03652 22.5658 1.99267 22.2067 2.05109 21.857C2.10951 21.5073 2.26772 21.1819 2.50669 20.92L20.32 1.2Z" fill="url(#paint0_linear)"/>
</g>
<defs>
<linearGradient id="paint0_linear" x1="5.24002" y1="98.0933" x2="105.427" y2="-2.09333" gradientUnits="userSpaceOnUse">
<stop stop-color="#9945FF"/>
<stop offset="0.14" stop-color="#8A53F4"/>
<stop offset="0.42" stop-color="#6377D6"/>
<stop offset="0.79" stop-color="#24B0A7"/>
<stop offset="0.99" stop-color="#00D18C"/>
<stop offset="1" stop-color="#00D18C"/>
</linearGradient>
<clipPath id="clip0">
<rect width="96" height="96" fill="white"/>
</clipPath>
</defs>
</svg>
